<svg width="17" height="17" viewBox="0 0 17 17" fill="none" xmlns="http://www.w3.org/2000/svg">
<path d="M5.31675 16.5411H1.77225C0.793821 16.5411 0 15.7473 0 14.7689V1.77226C0 0.793827 0.793821 0 1.77225 0H5.31675C6.29519 0 7.08901 0.793827 7.08901 1.77226V14.7689C7.08901 15.7473 6.29519 16.5411 5.31675 16.5411ZM16.541 14.7689V1.77226C16.541 0.793827 15.7472 0 14.7688 0H11.2243C10.2458 0 9.45201 0.793827 9.45201 1.77226V14.7689C9.45201 15.7473 10.2458 16.5411 11.2243 16.5411H14.7688C15.7472 16.5411 16.541 15.7473 16.541 14.7689Z" fill="#5380FF"/>
</svg>
